<svg width="1771" height="718" viewBox="0 0 1771 718" fill="none" xmlns="http://www.w3.org/2000/svg">
<rect opacity="0.1" x="47.25" y="0.25" width="1723.5" height="717.5" rx="32.25" fill="#D9D9D9" fill-opacity="0.14" stroke="white" stroke-width="0.5"/>
<g opacity="0.1">
<mask id="mask0_301_32" style="mask-type:alpha" maskUnits="userSpaceOnUse" x="47" y="0" width="1724" height="718">
<rect x="47" width="1724" height="718" rx="32.5" fill="#D9D9D9"/>
</mask>
<g mask="url(#mask0_301_32)">
<g opacity="0.9" clip-path="url(#clip0_301_32)">
<path d="M-6.38867 15.5898H322.179C331.663 15.5898 341.452 15.5898 350.936 15.5898C424.053 12.2259 495.335 12.2259 571.205 15.5898C578.547 15.5898 585.89 15.5898 593.232 15.5898H766.082" stroke="white" stroke-width="0.540503" stroke-miterlimit="10"/>
<path d="M-6.38867 56.2621H293.728C303.211 56.2621 312.695 56.2621 322.179 56.2621C413.652 56.2621 508.795 49.5343 599.35 56.2621C607.61 56.2621 615.565 56.2621 623.213 56.2621H766.388" stroke="white" stroke-width="0.540503" stroke-miterlimit="10"/>
<path d="M-6.38867 96.9348H265.582C275.066 96.9348 284.55 96.9348 294.033 97.5465C403.556 96.9348 515.832 93.5709 622.907 96.629C637.286 96.629 650.441 96.629 662.984 96.629H766.082" stroke="white" stroke-width="0.540503" stroke-miterlimit="10"/>
<path d="M-6.38867 137.301H265.582C273.536 136.384 281.184 136.078 288.833 136.078C342.37 137.607 390.095 147.699 444.244 154.427C512.161 164.518 576.712 144.335 645.24 137.301C659.618 137.301 673.385 137.301 685.622 137.301H766.082" stroke="white" stroke-width="0.540503" stroke-miterlimit="10"/>
<path d="M-6.38867 177.974H265.582C273.536 177.363 281.184 177.363 288.833 177.974C296.481 178.586 304.129 179.197 311.777 179.809C390.095 181.95 458.011 225.986 532.658 229.35C573.346 229.35 603.939 195.405 641.875 181.644C648.605 179.197 655.641 177.668 662.984 176.751C670.326 176.139 677.974 176.445 685.928 177.974H766.388" stroke="white" stroke-width="0.540503" stroke-miterlimit="10"/>
<path d="M-6.38867 218.646H265.582C276.595 218.035 287.609 218.646 298.316 219.258C309.024 220.175 319.426 221.399 329.827 222.622C379.999 225.68 424.053 246.169 468.413 266.658C539.694 297.239 600.88 256.567 660.842 224.151C670.02 220.787 679.198 218.341 688.988 217.117C698.777 215.894 708.873 216.2 719.58 218.646H766.388" stroke="white" stroke-width="0.540503" stroke-miterlimit="10"/>
<path d="M-6.38867 259.319H265.582C274.76 259.319 284.244 259.319 293.728 259.319C304.741 261.765 316.06 263.906 327.074 265.741C420.688 276.75 515.832 321.092 610.364 295.098C620.765 292.346 631.167 288.677 641.569 283.784C651.97 279.196 662.066 273.386 672.467 266.658C689.599 256.567 703.06 259.931 719.886 259.319C734.571 259.319 746.196 259.319 754.456 259.319H766.693" stroke="white" stroke-width="0.540503" stroke-miterlimit="10"/>
<path d="M-6.38867 299.991H322.179C331.663 299.991 341.452 299.991 351.548 300.603C424.053 324.456 498.7 331.184 572.735 326.597C584.972 325.679 597.209 324.15 609.446 322.315C646.158 317.116 682.869 309.471 719.58 300.297C734.265 300.297 745.89 300.297 753.844 300.297H766.082" stroke="white" stroke-width="0.540503" stroke-miterlimit="10"/>
<path d="M-6.38867 340.664H350.936C360.42 340.664 370.21 340.664 379.999 340.664C450.975 351.367 518.891 368.492 593.844 358.095C637.897 351.367 675.221 337.606 719.274 340.358C729.064 340.358 737.63 340.358 744.361 340.358H766.082" stroke="white" stroke-width="0.540503" stroke-miterlimit="10"/>
<path d="M-6.38867 381.336H80.1892C90.8967 381.336 102.216 381.336 114.147 381.336C122.101 381.336 130.362 381.336 138.316 381.642C146.576 381.642 154.53 381.642 162.79 381.642C202.867 381.642 243.555 381.642 283.632 381.03C291.586 381.03 299.54 381.03 307.494 381.03H379.694C389.483 381.03 398.967 381.03 408.757 381.03C505.43 392.039 600.574 388.675 695.106 381.03C709.485 381.03 722.334 381.03 733.041 381.03H766.388" stroke="white" stroke-width="0.540503" stroke-miterlimit="10"/>
<path d="M-6.38867 422.008H40.4184C52.3497 422.008 63.975 422.008 75.9062 422.008C179.31 415.892 277.819 422.926 379.999 422.008H416.099C428.03 422.008 439.961 422.008 451.893 422.008C522.256 422.926 597.209 422.926 668.796 422.008C683.481 422.008 696.942 422.008 708.873 422.008H766.082" stroke="white" stroke-width="0.540503" stroke-miterlimit="10"/>
<path d="M-6.38867 462.681C-6.38867 462.681 5.54255 462.681 26.6516 462.681C37.0532 462.681 47.7607 462.07 58.1623 461.458C176.251 439.746 291.586 456.871 409.063 462.375H488.91C497.17 462.375 505.736 462.375 513.69 462.375C549.79 463.293 590.478 463.293 627.802 462.375H766.388" stroke="white" stroke-width="0.540503" stroke-miterlimit="10"/>
<path d="M-6.38867 503.354C-6.38867 503.354 1.25955 503.354 15.0263 503.354C26.9576 502.436 39.1947 501.213 50.82 499.684C165.849 460.54 287.915 473.996 408.145 503.354C418.241 503.354 427.724 503.354 437.514 503.354H766.082" stroke="white" stroke-width="0.540503" stroke-miterlimit="10"/>
<path d="M-6.38867 544.026C-6.38867 544.026 1.25955 544.026 15.0263 544.026C25.4279 545.249 35.5236 545.249 45.3133 544.026C84.4722 535.463 115.065 508.246 155.754 497.849C244.167 477.36 318.814 525.066 404.168 537.298C415.793 539.439 427.112 541.579 437.82 544.332C447.304 544.332 456.788 544.332 466.271 544.332H766.388" stroke="white" stroke-width="0.540503" stroke-miterlimit="10"/>
<path d="M-6.38867 584.698C-6.38867 584.698 1.25955 584.698 15.0263 584.698C22.0627 585.004 29.405 585.616 36.4414 585.616C84.1663 592.649 104.358 541.885 145.352 528.124C179.31 514.668 216.633 521.396 250.592 531.488C301.682 548.613 349.101 568.796 403.862 575.83C415.487 578.276 426.501 581.029 437.208 583.781C446.692 584.087 456.482 584.087 465.66 584.087H765.776" stroke="white" stroke-width="0.540503" stroke-miterlimit="10"/>
<path d="M-6.38867 625.065H15.3323C22.3686 625.065 30.9346 625.065 40.4184 625.065C60.6097 619.866 87.8374 629.958 101.298 612.833C186.346 514.363 305.047 602.741 405.086 614.974C415.793 617.726 426.807 621.09 437.514 624.454C446.998 624.759 456.788 624.759 465.965 625.065H766.082" stroke="white" stroke-width="0.540503" stroke-miterlimit="10"/>
<path d="M-6.38867 665.738H40.4184C50.2082 665.738 61.5275 665.738 73.7647 665.738C84.1663 663.903 94.2619 667.572 100.992 663.903C186.041 596.013 280.879 636.686 371.739 651.67C383.059 653.811 393.766 655.952 404.78 658.398C415.487 660.539 426.501 662.985 437.208 665.432C446.692 665.432 456.176 665.432 465.66 665.432H765.776" stroke="white" stroke-width="0.540503" stroke-miterlimit="10"/>
<path d="M-6.38867 706.41H74.0706C86.3078 706.41 100.075 706.41 114.453 706.41C125.161 703.658 135.868 701.211 146.576 699.377C199.807 691.12 254.263 687.756 308.412 693.872C319.426 694.484 330.133 695.401 340.841 696.318C351.548 697.236 362.256 698.153 372.657 699.071C383.365 699.988 394.072 700.906 405.086 702.129C416.099 703.352 426.807 704.575 437.514 706.104C446.998 706.104 456.482 706.104 465.965 706.104H766.082" stroke="white" stroke-width="0.540503" stroke-miterlimit="10"/>
<path d="M74.989 747.083V700.294C74.989 690.508 74.989 679.193 74.989 666.961C70.706 596.319 70.706 528.43 71.9297 458.4C72.8475 435.77 73.7653 412.834 74.989 390.205V-25.0825" stroke="white" stroke-width="0.540503" stroke-miterlimit="10"/>
<path d="M115.678 747.083V734.85C115.678 726.899 115.678 714.973 115.678 700.294C97.9341 606.411 94.5689 504.577 111.395 410.388C112.619 399.685 114.148 388.676 115.372 377.667C115.372 369.41 115.372 361.153 115.372 352.896V-25.0825" stroke="white" stroke-width="0.540503" stroke-miterlimit="10"/>
<path d="M156.367 747.083C154.531 736.073 153.001 725.37 151.166 714.667C131.892 609.775 114.76 501.213 148.412 397.238C150.86 387.147 153.307 376.443 156.367 365.74C156.367 356.872 156.367 348.003 156.367 339.135V-25.0825" stroke="white" stroke-width="0.540503" stroke-miterlimit="10"/>
<path d="M197.055 746.165C197.361 736.685 197.055 727.511 196.137 718.337C186.347 646.778 135.563 582.252 145.659 504.271C152.389 453.201 200.114 419.256 197.055 364.517C197.055 355.954 197.055 347.697 197.055 339.135V-25.0825" stroke="white" stroke-width="0.540503" stroke-miterlimit="10"/>
<path d="M237.743 744.33C237.743 732.71 236.519 721.089 234.378 709.774C196.749 609.469 138.928 504.271 227.341 405.801C237.437 399.073 240.802 381.948 238.049 364.517V-25.0825" stroke="white" stroke-width="0.540503" stroke-miterlimit="10"/>
<path d="M278.126 743.413C275.679 731.486 273.231 719.56 270.478 707.633C230.401 603.047 199.808 487.452 277.514 389.899C278.126 380.113 278.432 370.633 278.432 360.847V218.952C278.432 178.28 278.432 137.607 278.432 95.4058V-25.0825" stroke="white" stroke-width="0.540503" stroke-miterlimit="10"/>
<path d="M319.12 744.636C317.896 733.933 316.366 723.23 315.143 712.22C313.307 701.517 311.777 690.814 309.636 680.111C268.03 582.864 288.221 484.394 318.814 390.205C319.12 377.667 319.12 364.823 319.12 352.284V289.288C319.426 278.891 319.732 268.493 320.038 258.096C320.038 247.698 320.343 236.995 320.343 226.597C318.814 162.072 318.814 100.91 319.12 37.9139V-25.0825" stroke="white" stroke-width="0.540503" stroke-miterlimit="10"/>
<path d="M359.809 746.165C359.503 735.156 359.197 724.147 358.891 713.444C358.891 702.435 358.279 691.426 358.279 680.416C335.947 596.013 349.713 507.941 359.503 418.645C359.503 409.165 359.503 399.379 359.503 389.899V339.135C360.727 331.49 361.645 324.15 362.256 316.811C363.174 309.471 363.786 302.132 364.092 294.793C372.964 191.735 359.197 93.2652 359.197 -8.8747V-25.0825" stroke="white" stroke-width="0.540503" stroke-miterlimit="10"/>
<path d="M400.497 747.083C400.497 723.841 400.497 700.6 400.497 677.97C400.497 666.655 400.497 655.34 400.497 644.025C400.497 632.711 400.497 621.396 400.191 610.081C397.132 555.341 400.497 500.907 400.497 447.085V399.991C400.497 392.04 400.497 384.089 400.497 376.138C404.78 365.74 408.145 355.343 411.205 344.945C431.09 222.316 397.132 96.6292 400.497 -25.3882" stroke="white" stroke-width="0.540503" stroke-miterlimit="10"/>
<path d="M441.186 747.082V666.655C441.186 629.958 441.186 592.649 441.186 555.341C441.186 546.778 441.186 538.216 441.186 529.347V445.556C441.186 436.076 441.186 426.29 441.186 416.504C441.186 400.908 442.103 385.312 445.469 371.244C448.834 357.177 454.952 344.333 465.048 334.242C478.815 317.422 488.911 296.933 488.911 273.08C482.18 171.246 427.725 79.5036 441.186 -25.6943" stroke="white" stroke-width="0.540503" stroke-miterlimit="10"/>
<path d="M481.874 747.082V470.938C481.874 462.987 481.874 455.036 481.874 447.085C476.979 421.397 483.71 398.155 493.806 376.443C497.171 369.104 500.842 362.07 504.819 355.037C529.599 320.786 539.695 279.808 532.964 235.771C512.467 144.029 468.413 66.048 481.874 -25.6943" stroke="white" stroke-width="0.540503" stroke-miterlimit="10"/>
<path d="M522.256 747.083V494.485C522.256 486.84 522.256 478.889 522.256 470.938C515.526 425.373 536.023 387.453 553.461 348.003C557.744 338.217 562.027 328.126 565.392 318.034C573.347 296.933 577.018 273.08 573.347 252.897C546.119 157.791 508.796 73.082 521.951 -25.3882" stroke="white" stroke-width="0.540503" stroke-miterlimit="10"/>
<path d="M562.946 747.083V494.485C562.946 486.84 562.946 478.889 562.946 470.938C557.745 422.315 577.936 378.89 590.785 332.407C593.232 323.233 595.68 313.753 597.21 303.967C600.575 208.861 553.156 117.118 562.64 21.4003C562.64 6.72151 562.64 -4.8992 562.64 -12.8502V-25.0825" stroke="white" stroke-width="0.540503" stroke-miterlimit="10"/>
<path d="M603.634 747.083V469.715C610.67 407.33 617.707 345.557 619.236 283.478C619.236 270.94 619.542 258.707 619.236 246.169C617.401 181.949 603.94 120.788 603.328 55.0392C603.328 42.8068 603.328 31.492 603.328 21.7061V-25.0825" stroke="white" stroke-width="0.540503" stroke-miterlimit="10"/>
<path d="M644.322 747.083V470.938C644.322 462.07 644.322 453.201 644.322 444.333C649.523 372.162 651.053 302.438 648.911 232.102C648.911 222.01 648.3 211.919 647.688 202.133C644.628 174.916 644.628 144.335 644.017 118.036C644.017 103.968 644.017 90.5129 644.017 77.9748V-25.0825" stroke="white" stroke-width="0.540503" stroke-miterlimit="10"/>
<path d="M685.011 747.083V433.018C685.011 424.761 685.011 416.198 685.011 407.942C685.623 337.911 688.988 263.294 685.011 192.347C685.011 184.702 685.011 177.057 685.011 169.411V-25.0825" stroke="white" stroke-width="0.540503" stroke-miterlimit="10"/>
<path d="M725.699 747.083V360.847C726.617 324.456 726.617 283.478 725.699 246.475C725.699 237.301 725.699 228.126 725.699 218.952V-25.0825" stroke="white" stroke-width="0.540503" stroke-miterlimit="10"/>
<path d="M766.389 747.083V-25.0825" stroke="white" stroke-width="0.540503" stroke-miterlimit="10"/>
</g>
<g opacity="0.9" clip-path="url(#clip1_301_32)">
<path d="M1539.23 706.41L1210.66 706.41C1201.18 706.41 1191.39 706.41 1181.9 706.41C1108.78 709.774 1037.5 709.774 961.633 706.41C954.291 706.41 946.948 706.41 939.606 706.41L766.756 706.41" stroke="white" stroke-width="0.540503" stroke-miterlimit="10"/>
<path d="M1539.23 665.738L1239.11 665.738C1229.63 665.738 1220.14 665.738 1210.66 665.738C1119.19 665.738 1024.04 672.465 933.487 665.738C925.227 665.738 917.273 665.738 909.625 665.738L766.45 665.738" stroke="white" stroke-width="0.540503" stroke-miterlimit="10"/>
<path d="M1539.23 625.065L1267.26 625.065C1257.77 625.065 1248.29 625.065 1238.8 624.454C1129.28 625.065 1017.01 628.429 909.931 625.371C895.552 625.371 882.397 625.371 869.854 625.371L766.756 625.371" stroke="white" stroke-width="0.540503" stroke-miterlimit="10"/>
<path d="M1539.23 584.699L1267.26 584.699C1259.3 585.616 1251.65 585.922 1244.01 585.922C1190.47 584.393 1142.74 574.301 1088.59 567.573C1020.68 557.482 956.126 577.665 887.598 584.699C873.219 584.699 859.453 584.699 847.216 584.699L766.756 584.699" stroke="white" stroke-width="0.540503" stroke-miterlimit="10"/>
<path d="M1539.23 544.026L1267.26 544.026C1259.3 544.638 1251.65 544.638 1244.01 544.026C1236.36 543.414 1228.71 542.803 1221.06 542.191C1142.74 540.051 1074.83 496.014 1000.18 492.65C959.491 492.65 928.898 526.595 890.963 540.356C884.233 542.803 877.197 544.332 869.854 545.249C862.512 545.861 854.864 545.555 846.91 544.026L766.45 544.026" stroke="white" stroke-width="0.540503" stroke-miterlimit="10"/>
<path d="M1539.23 503.354L1267.26 503.354C1256.24 503.965 1245.23 503.354 1234.52 502.742C1223.81 501.825 1213.41 500.601 1203.01 499.378C1152.84 496.32 1108.78 475.831 1064.42 455.342C993.144 424.761 931.958 465.433 871.996 497.849C862.818 501.213 853.64 503.659 843.85 504.883C834.061 506.106 823.965 505.8 813.257 503.354L766.45 503.354" stroke="white" stroke-width="0.540503" stroke-miterlimit="10"/>
<path d="M1539.23 462.681L1267.26 462.681C1258.08 462.681 1248.59 462.681 1239.11 462.681C1228.1 460.235 1216.78 458.094 1205.76 456.259C1112.15 445.25 1017.01 400.908 922.474 426.901C912.072 429.654 901.671 433.323 891.269 438.216C880.868 442.803 870.772 448.614 860.37 455.342C843.238 465.433 829.778 462.069 812.951 462.681C798.267 462.681 786.642 462.681 778.382 462.681L766.144 462.681" stroke="white" stroke-width="0.540503" stroke-miterlimit="10"/>
<path d="M1539.23 422.009L1210.66 422.009C1201.18 422.009 1191.39 422.009 1181.29 421.397C1108.78 397.544 1034.14 390.816 960.103 395.403C947.866 396.321 935.629 397.85 923.392 399.685C886.68 404.883 849.969 412.529 813.257 421.703C798.573 421.703 786.948 421.703 778.993 421.703L766.756 421.703" stroke="white" stroke-width="0.540503" stroke-miterlimit="10"/>
<path d="M1539.23 381.336L1181.9 381.336C1172.42 381.336 1162.63 381.336 1152.84 381.336C1081.86 370.633 1013.95 353.508 938.994 363.905C894.94 370.633 857.617 384.394 813.563 381.642C803.774 381.642 795.208 381.642 788.477 381.642L766.756 381.642" stroke="white" stroke-width="0.540503" stroke-miterlimit="10"/>
<path d="M1539.23 340.664L1452.65 340.664C1441.94 340.664 1430.62 340.664 1418.69 340.664C1410.74 340.664 1402.48 340.664 1394.52 340.358C1386.26 340.358 1378.31 340.358 1370.05 340.358C1329.97 340.358 1289.28 340.358 1249.21 340.97C1241.25 340.97 1233.3 340.97 1225.34 340.97L1153.14 340.97C1143.35 340.97 1133.87 340.97 1124.08 340.97C1027.41 329.961 932.264 333.324 837.732 340.97C823.353 340.97 810.504 340.97 799.797 340.97L766.45 340.97" stroke="white" stroke-width="0.540503" stroke-miterlimit="10"/>
<path d="M1539.23 299.992L1492.42 299.992C1480.49 299.992 1468.86 299.992 1456.93 299.992C1353.53 306.108 1255.02 299.074 1152.84 299.991L1116.74 299.991C1104.81 299.991 1092.88 299.991 1080.95 299.991C1010.58 299.074 935.629 299.074 864.042 299.991C849.357 299.991 835.896 299.991 823.965 299.991L766.756 299.991" stroke="white" stroke-width="0.540503" stroke-miterlimit="10"/>
<path d="M1539.23 259.319C1539.23 259.319 1527.3 259.319 1506.19 259.319C1495.78 259.319 1485.08 259.93 1474.68 260.542C1356.59 282.254 1241.25 265.129 1123.78 259.625L1043.93 259.625C1035.67 259.625 1027.1 259.625 1019.15 259.625C983.048 258.707 942.359 258.707 905.036 259.625L766.45 259.625" stroke="white" stroke-width="0.540503" stroke-miterlimit="10"/>
<path d="M1539.23 218.646C1539.23 218.646 1531.58 218.646 1517.81 218.646C1505.88 219.564 1493.64 220.787 1482.02 222.316C1366.99 261.46 1244.92 248.004 1124.69 218.646C1114.6 218.646 1105.11 218.646 1095.32 218.646L766.756 218.646" stroke="white" stroke-width="0.540503" stroke-miterlimit="10"/>
<path d="M1539.23 177.974C1539.23 177.974 1531.58 177.974 1517.81 177.974C1507.41 176.751 1497.31 176.751 1487.52 177.974C1448.37 186.537 1417.77 213.754 1377.08 224.151C1288.67 244.64 1214.02 196.934 1128.67 184.702C1117.04 182.561 1105.73 180.421 1095.02 177.668C1085.53 177.668 1076.05 177.668 1066.57 177.668L766.45 177.668" stroke="white" stroke-width="0.540503" stroke-miterlimit="10"/>
<path d="M1539.23 137.302C1539.23 137.302 1531.58 137.302 1517.81 137.302C1510.78 136.996 1503.43 136.384 1496.4 136.384C1448.67 129.351 1428.48 180.115 1387.49 193.876C1353.53 207.332 1316.2 200.604 1282.25 190.512C1231.16 173.387 1183.74 153.204 1128.98 146.17C1117.35 143.723 1106.34 140.971 1095.63 138.219C1086.15 137.913 1076.36 137.913 1067.18 137.913L767.062 137.913" stroke="white" stroke-width="0.540503" stroke-miterlimit="10"/>
<path d="M1539.23 96.9348L1517.51 96.9348C1510.47 96.9348 1501.9 96.9348 1492.42 96.9348C1472.23 102.134 1445 92.0419 1431.54 109.167C1346.49 207.637 1227.79 119.259 1127.75 107.026C1117.04 104.274 1106.03 100.91 1095.32 97.5464C1085.84 97.2406 1076.05 97.2406 1066.87 96.9348L766.756 96.9348" stroke="white" stroke-width="0.540503" stroke-miterlimit="10"/>
<path d="M1539.23 56.2624L1492.42 56.2624C1482.63 56.2624 1471.31 56.2624 1459.07 56.2624C1448.67 58.0972 1438.58 54.4275 1431.85 58.0972C1346.8 125.987 1251.96 85.3141 1161.1 70.3295C1149.78 68.1888 1139.07 66.0482 1128.06 63.6017C1117.35 61.4611 1106.34 59.0146 1095.63 56.5681C1086.15 56.5681 1076.66 56.5681 1067.18 56.5681L767.062 56.5681" stroke="white" stroke-width="0.540503" stroke-miterlimit="10"/>
<path d="M1539.23 15.5902L1458.77 15.5901C1446.53 15.5901 1432.76 15.5901 1418.38 15.5901C1407.68 18.3424 1396.97 20.7889 1386.26 22.6237C1333.03 30.8805 1278.58 34.2444 1224.43 28.1283C1213.41 27.5167 1202.7 26.5992 1192 25.6818C1181.29 24.7644 1170.58 23.8469 1160.18 22.9295C1149.47 22.0121 1138.77 21.0946 1127.75 19.8714C1116.74 18.6482 1106.03 17.425 1095.32 15.8959C1085.84 15.8959 1076.36 15.8959 1066.87 15.8959L766.756 15.8959" stroke="white" stroke-width="0.540503" stroke-miterlimit="10"/>
<path d="M1539.23 -25.0825L1539.23 747.083" stroke="white" stroke-width="0.540503" stroke-miterlimit="10"/>
<path d="M1498.54 -25.0825L1498.54 55.345C1498.54 67.5773 1498.54 81.3386 1498.54 95.7116C1498.54 115.895 1499.15 136.078 1499.15 155.956C1499.15 175.833 1499.15 195.405 1499.15 215.283C1499.15 235.16 1499.15 255.038 1498.54 275.221C1498.54 284.701 1498.54 294.181 1498.54 303.661L1498.54 747.083" stroke="white" stroke-width="0.540503" stroke-miterlimit="10"/>
<path d="M1457.85 -25.0825L1457.85 21.7061C1457.85 31.4919 1457.85 42.8068 1457.85 55.0391C1462.13 125.681 1462.13 193.57 1460.91 263.6C1459.99 286.23 1459.07 309.166 1457.85 331.795L1457.85 747.083" stroke="white" stroke-width="0.540503" stroke-miterlimit="10"/>
<path d="M1417.16 -25.0826L1417.16 -12.8502C1417.16 -4.89923 1417.16 7.02729 1417.16 21.7061C1434.9 115.589 1438.27 217.423 1421.44 311.612C1420.22 322.315 1418.69 333.324 1417.47 344.333C1417.47 352.59 1417.47 360.847 1417.47 369.104L1417.47 747.083" stroke="white" stroke-width="0.540503" stroke-miterlimit="10"/>
<path d="M1376.47 -25.0826C1378.31 -14.0735 1379.84 -3.37017 1381.67 7.33311C1400.95 112.225 1418.08 220.787 1384.43 324.762C1381.98 334.853 1379.53 345.557 1376.47 356.26C1376.47 365.128 1376.47 373.997 1376.47 382.865L1376.47 747.083" stroke="white" stroke-width="0.540503" stroke-miterlimit="10"/>
<path d="M1335.78 -24.1652C1335.48 -14.6851 1335.78 -5.51088 1336.7 3.66336C1346.49 75.2224 1397.27 139.748 1387.18 217.729C1380.45 268.799 1332.72 302.744 1335.78 357.483C1335.78 366.046 1335.78 374.303 1335.78 382.865L1335.78 747.083" stroke="white" stroke-width="0.540503" stroke-miterlimit="10"/>
<path d="M1295.09 -22.3303C1295.09 -10.7096 1296.32 0.911112 1298.46 12.226C1336.09 112.531 1393.91 217.729 1305.5 316.199C1295.4 322.927 1292.04 340.052 1294.79 357.483L1294.79 747.083" stroke="white" stroke-width="0.540503" stroke-miterlimit="10"/>
<path d="M1254.71 -21.4129C1257.16 -9.48642 1259.61 2.44013 1262.36 14.3666C1302.44 118.953 1333.03 234.548 1255.32 332.101C1254.71 341.887 1254.41 351.367 1254.41 361.153L1254.41 503.048C1254.41 543.72 1254.41 584.393 1254.41 626.594L1254.41 747.083" stroke="white" stroke-width="0.540503" stroke-miterlimit="10"/>
<path d="M1213.72 -22.6361C1214.94 -11.9329 1216.47 -1.22956 1217.7 9.77952C1219.53 20.4828 1221.06 31.1861 1223.2 41.8894C1264.81 139.136 1244.62 237.606 1214.02 331.795C1213.72 344.333 1213.72 357.177 1213.72 369.715L1213.72 432.712C1213.41 443.109 1213.11 453.507 1212.8 463.904C1212.8 474.302 1212.49 485.005 1212.49 495.403C1214.02 559.928 1214.02 621.09 1213.72 684.086L1213.72 747.083" stroke="white" stroke-width="0.540503" stroke-miterlimit="10"/>
<path d="M1173.03 -24.1652C1173.33 -13.1561 1173.64 -2.14701 1173.95 8.55627C1173.95 19.5654 1174.56 30.5744 1174.56 41.5835C1196.89 125.987 1183.12 214.059 1173.33 303.355C1173.33 312.835 1173.33 322.621 1173.33 332.101L1173.33 382.865C1172.11 390.51 1171.19 397.85 1170.58 405.189C1169.66 412.529 1169.05 419.868 1168.75 427.207C1159.87 530.265 1173.64 628.735 1173.64 730.875L1173.64 747.083" stroke="white" stroke-width="0.540503" stroke-miterlimit="10"/>
<path d="M1132.34 -25.0825C1132.34 -1.84106 1132.34 21.4004 1132.34 44.0301C1132.34 55.345 1132.34 66.6599 1132.34 77.9748C1132.34 89.2897 1132.34 100.605 1132.65 111.92C1135.71 166.659 1132.34 221.093 1132.34 274.915L1132.34 322.01C1132.34 329.961 1132.34 337.912 1132.34 345.863C1128.06 356.26 1124.69 366.658 1121.63 377.055C1101.75 499.684 1135.71 625.371 1132.34 747.388" stroke="white" stroke-width="0.540503" stroke-miterlimit="10"/>
<path d="M1091.65 -25.0826L1091.65 55.3449C1091.65 92.0419 1091.65 129.35 1091.65 166.659C1091.65 175.222 1091.65 183.784 1091.65 192.653L1091.65 276.444C1091.65 285.924 1091.65 295.71 1091.65 305.496C1091.65 321.092 1090.73 336.688 1087.37 350.755C1084 364.823 1077.89 377.666 1067.79 387.758C1054.02 404.578 1043.93 425.067 1043.93 448.92C1050.66 550.754 1105.11 642.496 1091.65 747.694" stroke="white" stroke-width="0.540503" stroke-miterlimit="10"/>
<path d="M1050.96 -25.0826L1050.96 251.062C1050.96 259.013 1050.96 266.964 1050.96 274.915C1055.86 300.603 1049.13 323.844 1039.03 345.557C1035.67 352.896 1032 359.93 1028.02 366.963C1003.24 401.214 993.143 442.192 999.873 486.228C1020.37 577.971 1064.42 655.952 1050.96 747.694" stroke="white" stroke-width="0.540503" stroke-miterlimit="10"/>
<path d="M1010.58 -25.0825L1010.58 227.515C1010.58 235.16 1010.58 243.111 1010.58 251.062C1017.31 296.628 996.815 334.548 979.377 373.997C975.094 383.783 970.811 393.874 967.445 403.966C959.491 425.067 955.82 448.92 959.491 469.103C986.719 564.209 1024.04 648.918 1010.89 747.388" stroke="white" stroke-width="0.540503" stroke-miterlimit="10"/>
<path d="M969.893 -25.0825L969.893 227.515C969.893 235.16 969.893 243.111 969.893 251.062C975.093 299.685 954.902 343.11 942.053 389.593C939.606 398.767 937.158 408.247 935.629 418.033C932.263 513.139 979.682 604.882 970.198 700.6C970.198 715.278 970.198 726.899 970.198 734.85L970.198 747.083" stroke="white" stroke-width="0.540503" stroke-miterlimit="10"/>
<path d="M929.204 -25.0825L929.204 252.285C922.168 314.67 915.131 376.443 913.602 438.522C913.602 451.06 913.296 463.293 913.602 475.831C915.437 540.051 928.898 601.212 929.51 666.961C929.51 679.193 929.51 690.508 929.51 700.294L929.51 747.083" stroke="white" stroke-width="0.540503" stroke-miterlimit="10"/>
<path d="M888.515 -25.0825L888.515 251.062C888.515 259.93 888.515 268.799 888.515 277.667C883.315 349.838 881.785 419.562 883.926 489.898C883.926 499.99 884.538 510.081 885.15 519.867C888.209 547.084 888.209 577.665 888.821 603.964C888.821 618.032 888.821 631.487 888.821 644.025L888.821 747.083" stroke="white" stroke-width="0.540503" stroke-miterlimit="10"/>
<path d="M847.827 -25.0825L847.827 288.982C847.827 297.239 847.827 305.802 847.827 314.058C847.215 384.089 843.85 458.706 847.827 529.653C847.827 537.298 847.827 544.943 847.827 552.589L847.827 747.083" stroke="white" stroke-width="0.540503" stroke-miterlimit="10"/>
<path d="M807.139 -25.0825L807.139 361.153C806.221 397.544 806.221 438.522 807.139 475.525C807.139 484.699 807.139 493.874 807.139 503.048L807.139 747.083" stroke="white" stroke-width="0.540503" stroke-miterlimit="10"/>
</g>
<g opacity="0.9" clip-path="url(#clip2_301_32)">
<path d="M2312.39 15.5898L1983.82 15.5898C1974.34 15.5898 1964.55 15.5898 1955.06 15.5898C1881.95 12.226 1810.67 12.226 1734.8 15.5899C1727.45 15.5899 1720.11 15.5899 1712.77 15.5899L1539.92 15.5899" stroke="white" stroke-width="0.540503" stroke-miterlimit="10"/>
<path d="M2312.39 56.2626L2012.27 56.2626C2002.79 56.2626 1993.3 56.2626 1983.82 56.2626C1892.35 56.2626 1797.2 49.5349 1706.65 56.2626C1698.39 56.2626 1690.44 56.2626 1682.79 56.2626L1539.61 56.2627" stroke="white" stroke-width="0.540503" stroke-miterlimit="10"/>
<path d="M2312.39 96.9348L2040.42 96.9349C2030.93 96.9349 2021.45 96.9349 2011.97 97.5465C1902.44 96.9349 1790.17 93.571 1683.09 96.6291C1668.71 96.6291 1655.56 96.6291 1643.02 96.6291L1539.92 96.6291" stroke="white" stroke-width="0.540503" stroke-miterlimit="10"/>
<path d="M2312.39 137.301L2040.42 137.301C2032.46 136.384 2024.82 136.078 2017.17 136.078C1963.63 137.607 1915.9 147.699 1861.76 154.427C1793.84 164.518 1729.29 144.335 1660.76 137.301C1646.38 137.301 1632.61 137.301 1620.38 137.301L1539.92 137.301" stroke="white" stroke-width="0.540503" stroke-miterlimit="10"/>
<path d="M2312.39 177.974L2040.42 177.974C2032.46 177.363 2024.82 177.363 2017.17 177.974C2009.52 178.586 2001.87 179.197 1994.22 179.809C1915.9 181.95 1847.99 225.986 1773.34 229.35C1732.65 229.35 1702.06 195.405 1664.13 181.644C1657.4 179.197 1650.36 177.668 1643.02 176.751C1635.67 176.139 1628.03 176.445 1620.07 177.974L1539.61 177.974" stroke="white" stroke-width="0.540503" stroke-miterlimit="10"/>
<path d="M2312.39 218.646L2040.42 218.646C2029.4 218.035 2018.39 218.646 2007.68 219.258C1996.98 220.175 1986.57 221.399 1976.17 222.622C1926 225.68 1881.95 246.169 1837.59 266.658C1766.31 297.239 1705.12 256.567 1645.16 224.151C1635.98 220.787 1626.8 218.341 1617.01 217.117C1607.22 215.894 1597.13 216.2 1586.42 218.646L1539.61 218.646" stroke="white" stroke-width="0.540503" stroke-miterlimit="10"/>
<path d="M2312.39 259.319L2040.42 259.319C2031.24 259.319 2021.76 259.319 2012.27 259.319C2001.26 261.765 1989.94 263.906 1978.93 265.741C1885.31 276.75 1790.17 321.092 1695.64 295.099C1685.23 292.346 1674.83 288.677 1664.43 283.784C1654.03 279.197 1643.93 273.386 1633.53 266.658C1616.4 256.567 1602.94 259.931 1586.11 259.319C1571.43 259.319 1559.8 259.319 1551.54 259.319L1539.31 259.319" stroke="white" stroke-width="0.540503" stroke-miterlimit="10"/>
<path d="M2312.39 299.991L1983.82 299.991C1974.34 299.991 1964.55 299.991 1954.45 300.603C1881.95 324.456 1807.3 331.184 1733.27 326.597C1721.03 325.679 1708.79 324.15 1696.55 322.315C1659.84 317.117 1623.13 309.471 1586.42 300.297C1571.73 300.297 1560.11 300.297 1552.16 300.297L1539.92 300.297" stroke="white" stroke-width="0.540503" stroke-miterlimit="10"/>
<path d="M2312.39 340.664L1955.06 340.664C1945.58 340.664 1935.79 340.664 1926 340.664C1855.03 351.367 1787.11 368.492 1712.16 358.095C1668.1 351.367 1630.78 337.606 1586.73 340.358C1576.94 340.358 1568.37 340.358 1561.64 340.358L1539.92 340.358" stroke="white" stroke-width="0.540503" stroke-miterlimit="10"/>
<path d="M2312.39 381.336L2225.81 381.336C2215.1 381.336 2203.78 381.336 2191.85 381.336C2183.9 381.336 2175.64 381.336 2167.68 381.642C2159.42 381.642 2151.47 381.642 2143.21 381.642C2103.13 381.642 2062.44 381.642 2022.37 381.03C2014.41 381.03 2006.46 381.03 1998.51 381.03L1926.31 381.03C1916.52 381.03 1907.03 381.03 1897.24 381.03C1800.57 392.039 1705.43 388.676 1610.89 381.03C1596.52 381.03 1583.67 381.03 1572.96 381.03L1539.61 381.03" stroke="white" stroke-width="0.540503" stroke-miterlimit="10"/>
<path d="M2312.39 422.008L2265.58 422.008C2253.65 422.008 2242.03 422.008 2230.09 422.008C2126.69 415.892 2028.18 422.926 1926 422.009L1889.9 422.009C1877.97 422.009 1866.04 422.009 1854.11 422.009C1783.74 422.926 1708.79 422.926 1637.2 422.009C1622.52 422.009 1609.06 422.009 1597.13 422.009L1539.92 422.009" stroke="white" stroke-width="0.540503" stroke-miterlimit="10"/>
<path d="M2312.39 462.681C2312.39 462.681 2300.46 462.681 2279.35 462.681C2268.95 462.681 2258.24 462.07 2247.84 461.458C2129.75 439.746 2014.41 456.871 1896.94 462.375L1817.09 462.375C1808.83 462.375 1800.26 462.375 1792.31 462.375C1756.21 463.293 1715.52 463.293 1678.2 462.375L1539.61 462.375" stroke="white" stroke-width="0.540503" stroke-miterlimit="10"/>
<path d="M2312.39 503.354C2312.39 503.354 2304.74 503.354 2290.97 503.354C2279.04 502.436 2266.81 501.213 2255.18 499.684C2140.15 460.54 2018.09 473.996 1897.86 503.354C1887.76 503.354 1878.28 503.354 1868.49 503.354L1539.92 503.354" stroke="white" stroke-width="0.540503" stroke-miterlimit="10"/>
<path d="M2312.39 544.026C2312.39 544.026 2304.74 544.026 2290.97 544.026C2280.57 545.249 2270.48 545.249 2260.69 544.026C2221.53 535.463 2190.93 508.246 2150.25 497.849C2061.83 477.36 1987.19 525.066 1901.83 537.298C1890.21 539.439 1878.89 541.579 1868.18 544.332C1858.7 544.332 1849.21 544.332 1839.73 544.332L1539.61 544.332" stroke="white" stroke-width="0.540503" stroke-miterlimit="10"/>
<path d="M2312.39 584.698C2312.39 584.698 2304.74 584.698 2290.97 584.698C2283.94 585.004 2276.6 585.616 2269.56 585.616C2221.83 592.649 2201.64 541.885 2160.65 528.124C2126.69 514.668 2089.37 521.396 2055.41 531.488C2004.32 548.613 1956.9 568.796 1902.14 575.83C1890.51 578.277 1879.5 581.029 1868.79 583.781C1859.31 584.087 1849.52 584.087 1840.34 584.087L1540.22 584.087" stroke="white" stroke-width="0.540503" stroke-miterlimit="10"/>
<path d="M2312.39 625.065L2290.67 625.065C2283.63 625.065 2275.07 625.065 2265.58 625.065C2245.39 619.866 2218.16 629.958 2204.7 612.833C2119.65 514.363 2000.95 602.741 1900.91 614.974C1890.21 617.726 1879.19 621.09 1868.49 624.454C1859 624.759 1849.21 624.759 1840.03 625.065L1539.92 625.065" stroke="white" stroke-width="0.540503" stroke-miterlimit="10"/>
<path d="M2312.39 665.738L2265.58 665.738C2255.79 665.738 2244.47 665.738 2232.24 665.738C2221.83 663.903 2211.74 667.572 2205.01 663.903C2119.96 596.013 2025.12 636.686 1934.26 651.671C1922.94 653.811 1912.23 655.952 1901.22 658.398C1890.51 660.539 1879.5 662.985 1868.79 665.432C1859.31 665.432 1849.82 665.432 1840.34 665.432L1540.22 665.432" stroke="white" stroke-width="0.540503" stroke-miterlimit="10"/>
<path d="M2312.39 706.41L2231.93 706.41C2219.69 706.41 2205.93 706.41 2191.55 706.41C2180.84 703.658 2170.13 701.211 2159.42 699.377C2106.19 691.12 2051.74 687.756 1997.59 693.872C1986.57 694.484 1975.87 695.401 1965.16 696.318C1954.45 697.236 1943.74 698.153 1933.34 699.071C1922.64 699.988 1911.93 700.906 1900.91 702.129C1889.9 703.352 1879.19 704.575 1868.49 706.104C1859 706.104 1849.52 706.104 1840.03 706.104L1539.92 706.104" stroke="white" stroke-width="0.540503" stroke-miterlimit="10"/>
<path d="M1824.13 747.082L1824.13 470.938C1824.13 462.987 1824.13 455.036 1824.13 447.085C1829.02 421.397 1822.29 398.155 1812.19 376.443C1808.83 369.104 1805.16 362.07 1801.18 355.037C1776.4 320.786 1766.31 279.808 1773.04 235.771C1793.53 144.029 1837.59 66.048 1824.13 -25.6943" stroke="white" stroke-width="0.540503" stroke-miterlimit="10"/>
<path d="M1783.74 747.083L1783.74 494.485C1783.74 486.84 1783.74 478.889 1783.74 470.938C1790.47 425.373 1769.98 387.453 1752.54 348.003C1748.26 338.217 1743.97 328.126 1740.61 318.034C1732.65 296.933 1728.98 273.08 1732.65 252.897C1759.88 157.791 1797.2 73.082 1784.05 -25.3882" stroke="white" stroke-width="0.540503" stroke-miterlimit="10"/>
<path d="M1743.05 747.083L1743.05 494.485C1743.05 486.84 1743.05 478.889 1743.05 470.938C1748.26 422.315 1728.06 378.89 1715.22 332.407C1712.77 323.233 1710.32 313.753 1708.79 303.967C1705.43 208.861 1752.84 117.118 1743.36 21.4003C1743.36 6.72151 1743.36 -4.8992 1743.36 -12.8502L1743.36 -25.0825" stroke="white" stroke-width="0.540503" stroke-miterlimit="10"/>
<path d="M1702.37 747.083L1702.37 469.715C1695.33 407.33 1688.29 345.557 1686.76 283.478C1686.76 270.94 1686.46 258.707 1686.76 246.169C1688.6 181.949 1702.06 120.788 1702.67 55.0392C1702.67 42.8068 1702.67 31.492 1702.67 21.7061L1702.67 -25.0825" stroke="white" stroke-width="0.540503" stroke-miterlimit="10"/>
<path d="M1661.68 747.083L1661.68 470.938C1661.68 462.07 1661.68 453.201 1661.68 444.333C1656.48 372.162 1654.95 302.438 1657.09 232.102C1657.09 222.01 1657.7 211.919 1658.31 202.133C1661.37 174.916 1661.37 144.335 1661.98 118.036C1661.98 103.968 1661.98 90.5129 1661.98 77.9748L1661.98 -25.0825" stroke="white" stroke-width="0.540503" stroke-miterlimit="10"/>
<path d="M1620.99 747.083L1620.99 433.018C1620.99 424.761 1620.99 416.198 1620.99 407.942C1620.38 337.911 1617.01 263.294 1620.99 192.347C1620.99 184.702 1620.99 177.057 1620.99 169.411L1620.99 -25.0825" stroke="white" stroke-width="0.540503" stroke-miterlimit="10"/>
<path d="M1580.3 747.083L1580.3 360.847C1579.38 324.456 1579.38 283.478 1580.3 246.475C1580.3 237.301 1580.3 228.126 1580.3 218.952L1580.3 -25.0825" stroke="white" stroke-width="0.540503" stroke-miterlimit="10"/>
</g>
</g>
</g>
<g opacity="0.2" clip-path="url(#clip3_301_32)">
<path d="M1746.3 675.9L1712.1 666.7" stroke="white" stroke-miterlimit="10"/>
<path d="M1746.3 665.8L1712.1 656.6" stroke="white" stroke-miterlimit="10"/>
<path d="M1746.3 655.8L1712.1 646.5" stroke="white" stroke-miterlimit="10"/>
<path d="M1746.3 645.7L1712.1 636.5" stroke="white" stroke-miterlimit="10"/>
<path d="M1746.3 635.6L1712.1 626.4" stroke="white" stroke-miterlimit="10"/>
<path d="M1746.3 625.6L1712.1 616.3" stroke="white" stroke-miterlimit="10"/>
<path d="M1746.3 615.5L1712.1 606.2" stroke="white" stroke-miterlimit="10"/>
<path d="M1746.3 605.4L1712.1 596.2" stroke="white" stroke-miterlimit="10"/>
<path d="M1746.3 595.3L1712.1 586.1" stroke="white" stroke-miterlimit="10"/>
<path d="M1746.3 585.3L1712.1 576" stroke="white" stroke-miterlimit="10"/>
<path d="M1746.3 575.2L1712.1 566" stroke="white" stroke-miterlimit="10"/>
<path d="M1746.3 565.1L1712.1 555.9" stroke="white" stroke-miterlimit="10"/>
<path d="M1746.3 555L1712.1 545.8" stroke="white" stroke-miterlimit="10"/>
<path d="M1746.3 545L1712.1 535.7" stroke="white" stroke-miterlimit="10"/>
<path d="M1746.3 534.9L1712.1 525.7" stroke="white" stroke-miterlimit="10"/>
<path d="M1746.3 524.8L1712.1 515.6" stroke="white" stroke-miterlimit="10"/>
<path d="M1746.3 514.7L1712.1 505.5" stroke="white" stroke-miterlimit="10"/>
</g>
<path d="M70.2157 660.216C83.1421 647.289 83.1421 626.332 70.2157 613.405C57.2894 600.479 36.3316 600.479 23.4052 613.405C10.4789 626.332 10.4789 647.289 23.4052 660.216C36.3316 673.142 57.2893 673.142 70.2157 660.216Z" fill="url(#paint0_linear_301_32)"/>
<defs>
<linearGradient id="paint0_linear_301_32" x1="28.5055" y1="609.207" x2="61.8055" y2="659.607" gradientUnits="userSpaceOnUse">
<stop stop-color="#45DAFF"/>
<stop offset="0.5" stop-color="#F22383"/>
<stop offset="1" stop-color="#CE23F2"/>
</linearGradient>
<clipPath id="clip0_301_32">
<rect width="774" height="774" fill="white" transform="translate(-7 -26)"/>
</clipPath>
<clipPath id="clip1_301_32">
<rect width="774" height="774" fill="white" transform="translate(1539.84 748) rotate(-180)"/>
</clipPath>
<clipPath id="clip2_301_32">
<rect width="774" height="774" fill="white" transform="matrix(-1 8.74228e-08 8.74228e-08 1 2313 -26)"/>
</clipPath>
<clipPath id="clip3_301_32">
<rect width="171.4" height="34.5" fill="white" transform="translate(1712 676.4) rotate(-90)"/>
</clipPath>
</defs>
</svg>
