<svg width="167" height="80" viewBox="0 0 167 80" fill="none" xmlns="http://www.w3.org/2000/svg">
<path d="M88.842 30.4C91.308 30.4 93.108 32.092 93.108 34.432C93.108 36.79 91.308 38.518 88.842 38.518H86.7V43H84.036V30.4H88.842ZM88.842 35.962C89.76 35.962 90.426 35.314 90.426 34.432C90.426 33.586 89.76 32.956 88.842 32.956H86.7V35.962H88.842ZM96.9966 30.4V43H94.4586V30.4H96.9966ZM105.247 34.162H107.785V43H105.247V41.74C104.635 42.658 103.681 43.18 102.438 43.18C100.153 43.18 98.3345 41.11 98.3345 38.572C98.3345 36.034 100.153 33.982 102.438 33.982C103.681 33.982 104.635 34.504 105.247 35.422V34.162ZM103.033 40.75C104.275 40.75 105.247 39.814 105.247 38.572C105.247 37.348 104.275 36.394 103.033 36.394C101.809 36.394 100.819 37.366 100.819 38.572C100.819 39.796 101.809 40.75 103.033 40.75ZM115.462 34.162H118.198L113.284 45.934H110.566L112.204 42.28L108.802 34.162H111.538L113.5 39.328L115.462 34.162ZM131.648 34.162L127.994 43H125.834L122.162 34.162H124.916L126.914 39.544L128.876 34.162H131.648ZM133.951 29.878C134.797 29.878 135.499 30.58 135.499 31.408C135.499 32.254 134.797 32.956 133.951 32.956C133.105 32.956 132.403 32.254 132.403 31.408C132.403 30.58 133.105 29.878 133.951 29.878ZM132.691 34.162H135.229V43H132.691V34.162ZM143.567 30.4H146.105V43H143.567V41.74C142.955 42.658 142.001 43.18 140.759 43.18C138.473 43.18 136.655 41.11 136.655 38.572C136.655 36.034 138.473 33.982 140.759 33.982C142.001 33.982 142.955 34.504 143.567 35.422V30.4ZM141.353 40.75C142.595 40.75 143.567 39.814 143.567 38.572C143.567 37.348 142.595 36.394 141.353 36.394C140.129 36.394 139.139 37.366 139.139 38.572C139.139 39.796 140.129 40.75 141.353 40.75ZM156.359 38.284C156.359 38.482 156.341 38.896 156.305 39.184H149.735C149.915 40.336 150.797 41.074 151.985 41.074C152.975 41.074 153.605 40.642 153.749 40.03H156.233C155.945 41.938 154.271 43.18 152.057 43.18C149.447 43.18 147.413 41.146 147.413 38.536C147.413 35.962 149.429 33.982 152.003 33.982C154.397 33.982 156.359 35.854 156.359 38.284ZM149.861 37.564H153.713C153.641 36.664 152.831 36.034 151.895 36.034C150.923 36.034 150.167 36.52 149.861 37.564ZM161.882 33.982C164.474 33.982 166.472 35.962 166.472 38.59C166.472 41.218 164.474 43.18 161.882 43.18C159.272 43.18 157.292 41.218 157.292 38.59C157.292 35.962 159.272 33.982 161.882 33.982ZM161.882 36.412C160.676 36.412 159.776 37.33 159.776 38.59C159.776 39.814 160.676 40.75 161.882 40.75C163.07 40.75 163.988 39.814 163.988 38.59C163.988 37.33 163.07 36.412 161.882 36.412Z" fill="white"/>
<g filter="url(#filter0_d_1_933)">
<rect x="16" y="11" width="48" height="48" rx="24" fill="white"/>
<rect x="14.1277" y="9.12766" width="51.7447" height="51.7447" rx="25.8723" stroke="black" stroke-opacity="0.1" stroke-width="3.74468"/>
</g>
<g clip-path="url(#clip0_1_933)">
<path d="M44.9099 35.5708L38.3027 39.9756C38.2558 40.0069 38.2012 40.0248 38.1449 40.0275C38.0886 40.0302 38.0326 40.0175 37.9829 39.9909C37.9332 39.9643 37.8916 39.9247 37.8627 39.8764C37.8337 39.828 37.8184 39.7727 37.8183 39.7163V30.9067C37.8184 30.8504 37.8337 30.795 37.8627 30.7467C37.8916 30.6983 37.9332 30.6587 37.9829 30.6321C38.0326 30.6055 38.0886 30.5929 38.1449 30.5956C38.2012 30.5983 38.2558 30.6162 38.3027 30.6474L44.9099 35.0522C44.9525 35.0807 44.9875 35.1192 45.0118 35.1645C45.036 35.2097 45.0486 35.2602 45.0486 35.3115C45.0486 35.3628 45.036 35.4133 45.0118 35.4586C44.9875 35.5038 44.9525 35.5424 44.9099 35.5708Z" fill="#1C1C1C"/>
</g>
<defs>
<filter id="filter0_d_1_933" x="0.340417" y="0.446861" width="79.3192" height="79.319" filterUnits="userSpaceOnUse" color-interpolation-filters="sRGB">
<feFlood flood-opacity="0" result="BackgroundImageFix"/>
<feColorMatrix in="SourceAlpha" type="matrix" values="0 0 0 0 0 0 0 0 0 0 0 0 0 0 0 0 0 0 127 0" result="hardAlpha"/>
<feOffset dy="5.10638"/>
<feGaussianBlur stdDeviation="5.95745"/>
<feColorMatrix type="matrix" values="0 0 0 0 1 0 0 0 0 1 0 0 0 0 1 0 0 0 0.14 0"/>
<feBlend mode="normal" in2="BackgroundImageFix" result="effect1_dropShadow_1_933"/>
<feBlend mode="normal" in="SourceGraphic" in2="effect1_dropShadow_1_933" result="shape"/>
</filter>
<clipPath id="clip0_1_933">
<rect width="14.961" height="14.961" fill="white" transform="translate(32.8312 27.8311)"/>
</clipPath>
</defs>
</svg>
