<svg width="203" height="288" viewBox="0 0 203 288" fill="none" xmlns="http://www.w3.org/2000/svg">
<g filter="url(#filter0_bi_1_1012)">
<rect width="526" height="288" rx="24" fill="white" fill-opacity="0.03"/>
</g>
<path d="M154.483 117.36C147.427 117.36 141.955 111.672 141.955 104.328C141.955 97.056 147.427 91.44 154.483 91.44C160.027 91.44 164.851 94.968 165.823 99.972H162.835C161.863 96.48 158.443 94.068 154.483 94.068C149.011 94.068 144.763 98.532 144.763 104.328C144.763 110.196 149.011 114.732 154.483 114.732C158.551 114.732 161.971 112.212 162.871 108.504H165.895C164.815 113.76 160.135 117.36 154.483 117.36ZM172.796 91.8V117H170.168V91.8H172.796ZM185.332 99.144C190.408 99.144 194.404 103.104 194.404 108.252C194.404 113.4 190.408 117.36 185.332 117.36C180.256 117.36 176.296 113.4 176.296 108.252C176.296 103.104 180.256 99.144 185.332 99.144ZM185.332 101.628C181.696 101.628 178.888 104.508 178.888 108.252C178.888 111.96 181.696 114.876 185.332 114.876C188.968 114.876 191.812 111.96 191.812 108.252C191.812 104.508 188.968 101.628 185.332 101.628ZM211.755 99.504H214.383V117H211.755V113.616C210.639 115.956 208.551 117.36 205.779 117.36C201.279 117.36 198.399 114.336 198.399 109.584V99.504H201.027V109.296C201.027 112.68 203.115 114.876 206.319 114.876C209.631 114.876 211.755 112.68 211.755 109.296V99.504ZM234.182 91.8H236.81V117H234.182V112.932C232.922 115.704 230.402 117.36 227.054 117.36C222.23 117.36 218.378 113.292 218.378 108.216C218.378 103.14 222.23 99.144 227.054 99.144C230.402 99.144 232.922 100.764 234.182 103.536V91.8ZM227.558 114.876C231.374 114.876 234.182 112.068 234.182 108.216C234.182 104.4 231.374 101.592 227.558 101.592C223.85 101.592 220.97 104.544 220.97 108.216C220.97 111.96 223.85 114.876 227.558 114.876ZM250.86 91.8H253.416L267.528 112.032V91.8H270.264V117H267.744L253.56 96.804V117H250.86V91.8ZM291.873 107.712C291.873 107.964 291.873 108.504 291.837 108.72H277.185C277.437 112.428 279.921 114.984 283.593 114.984C286.365 114.984 288.633 113.616 289.101 111.456H291.729C291.045 115.02 287.697 117.36 283.521 117.36C278.445 117.36 274.593 113.4 274.593 108.144C274.593 103.104 278.517 99.144 283.485 99.144C288.201 99.144 291.873 102.744 291.873 107.712ZM277.293 106.488H289.065C288.813 103.608 286.509 101.52 283.377 101.52C280.281 101.52 277.905 103.464 277.293 106.488ZM304.29 101.952H299.394V111.096C299.394 113.76 300.834 114.732 303.066 114.732C303.462 114.732 303.93 114.696 304.29 114.588V117C303.822 117.108 303.138 117.18 302.598 117.18C299.034 117.18 296.766 115.236 296.766 111.132V101.952H293.31V99.504H296.766V94.68H299.394V99.504H304.29V101.952ZM312.446 117L306.038 99.504H308.846L313.526 113.256L318.458 99.504H320.618L325.586 113.256L330.266 99.504H333.074L326.666 117H324.506L319.538 103.248L314.57 117H312.446ZM343.641 99.144C348.717 99.144 352.713 103.104 352.713 108.252C352.713 113.4 348.717 117.36 343.641 117.36C338.565 117.36 334.605 113.4 334.605 108.252C334.605 103.104 338.565 99.144 343.641 99.144ZM343.641 101.628C340.005 101.628 337.197 104.508 337.197 108.252C337.197 111.96 340.005 114.876 343.641 114.876C347.277 114.876 350.121 111.96 350.121 108.252C350.121 104.508 347.277 101.628 343.641 101.628ZM364.268 99.144C364.808 99.144 365.42 99.252 365.888 99.36V101.808C365.384 101.628 364.771 101.52 364.196 101.52C361.496 101.52 359.336 103.644 359.336 106.632V117H356.708V99.504H359.336V102.312C360.344 100.404 362.108 99.144 364.268 99.144ZM384.199 117H380.707L371.851 108.432V117H369.223V91.8H371.851V107.316L380.311 99.504H383.623L374.515 107.856L384.199 117Z" fill="white"/>
<path d="M153.916 143.8H156.616V169H153.916V143.8ZM170.599 151.144C175.135 151.144 177.979 154.132 177.979 158.92V169H175.351V159.172C175.351 155.824 173.263 153.628 170.059 153.628C166.783 153.628 164.623 155.824 164.623 159.172V169H161.995V151.504H164.623V154.924C165.739 152.548 167.863 151.144 170.599 151.144ZM191.434 145.816C189.238 145.816 187.762 146.752 187.762 149.416V151.504H192.694V153.952H187.762V169H185.134V153.952H181.678V151.504H185.134V149.38C185.134 145.312 187.438 143.368 190.966 143.368C191.506 143.368 192.19 143.44 192.694 143.548V145.96C192.298 145.852 191.866 145.816 191.434 145.816ZM203.762 151.144C204.302 151.144 204.914 151.252 205.382 151.36V153.808C204.878 153.628 204.266 153.52 203.69 153.52C200.99 153.52 198.83 155.644 198.83 158.632V169H196.202V151.504H198.83V154.312C199.838 152.404 201.602 151.144 203.762 151.144ZM222.106 151.504H224.734V169H222.106V164.932C220.846 167.704 218.326 169.36 214.978 169.36C210.154 169.36 206.302 165.292 206.302 160.216C206.302 155.14 210.154 151.144 214.978 151.144C218.326 151.144 220.846 152.764 222.106 155.536V151.504ZM215.482 166.876C219.298 166.876 222.106 164.068 222.106 160.216C222.106 156.4 219.298 153.592 215.482 153.592C211.774 153.592 208.894 156.544 208.894 160.216C208.894 163.96 211.774 166.876 215.482 166.876ZM235.536 169.36C231.612 169.36 228.804 167.236 228.444 163.816H230.964C231.216 165.796 232.98 167.092 235.428 167.092C237.876 167.092 239.496 165.868 239.496 164.104C239.496 159.172 228.876 162.808 228.876 156.04C228.876 153.196 231.324 151.144 235.104 151.144C238.452 151.144 241.332 153.016 241.728 156.148H239.064C238.812 154.528 237.192 153.34 235.032 153.34C232.908 153.34 231.432 154.348 231.432 155.86C231.432 160.576 242.052 156.796 242.052 164.032C242.052 167.128 239.28 169.36 235.536 169.36ZM254.631 153.952H249.735V163.096C249.735 165.76 251.175 166.732 253.407 166.732C253.803 166.732 254.271 166.696 254.631 166.588V169C254.163 169.108 253.479 169.18 252.939 169.18C249.375 169.18 247.107 167.236 247.107 163.132V153.952H243.651V151.504H247.107V146.68H249.735V151.504H254.631V153.952ZM265.848 151.144C266.388 151.144 267 151.252 267.468 151.36V153.808C266.964 153.628 266.352 153.52 265.776 153.52C263.076 153.52 260.916 155.644 260.916 158.632V169H258.288V151.504H260.916V154.312C261.924 152.404 263.688 151.144 265.848 151.144ZM283.913 151.504H286.541V169H283.913V165.616C282.797 167.956 280.709 169.36 277.937 169.36C273.437 169.36 270.557 166.336 270.557 161.584V151.504H273.185V161.296C273.185 164.68 275.273 166.876 278.477 166.876C281.789 166.876 283.913 164.68 283.913 161.296V151.504ZM299.573 169.36C294.497 169.36 290.537 165.4 290.537 160.252C290.537 155.104 294.497 151.144 299.573 151.144C303.533 151.144 307.025 153.736 307.673 157.228H305.009C304.433 155.14 302.165 153.628 299.573 153.628C295.937 153.628 293.129 156.508 293.129 160.252C293.129 163.96 295.937 166.876 299.573 166.876C302.129 166.876 304.505 165.364 305.009 163.096H307.673C307.133 166.804 303.569 169.36 299.573 169.36ZM320.69 153.952H315.794V163.096C315.794 165.76 317.234 166.732 319.466 166.732C319.862 166.732 320.33 166.696 320.69 166.588V169C320.222 169.108 319.538 169.18 318.998 169.18C315.434 169.18 313.166 167.236 313.166 163.132V153.952H309.71V151.504H313.166V146.68H315.794V151.504H320.69V153.952ZM337.351 151.504H339.979V169H337.351V165.616C336.235 167.956 334.147 169.36 331.375 169.36C326.875 169.36 323.995 166.336 323.995 161.584V151.504H326.623V161.296C326.623 164.68 328.711 166.876 331.915 166.876C335.227 166.876 337.351 164.68 337.351 161.296V151.504ZM352.578 151.144C353.118 151.144 353.73 151.252 354.198 151.36V153.808C353.694 153.628 353.082 153.52 352.506 153.52C349.806 153.52 347.646 155.644 347.646 158.632V169H345.018V151.504H347.646V154.312C348.654 152.404 350.418 151.144 352.578 151.144ZM372.399 159.712C372.399 159.964 372.399 160.504 372.363 160.72H357.711C357.963 164.428 360.447 166.984 364.119 166.984C366.891 166.984 369.159 165.616 369.627 163.456H372.255C371.571 167.02 368.223 169.36 364.047 169.36C358.971 169.36 355.119 165.4 355.119 160.144C355.119 155.104 359.043 151.144 364.011 151.144C368.727 151.144 372.399 154.744 372.399 159.712ZM357.819 158.488H369.591C369.339 155.608 367.035 153.52 363.903 153.52C360.807 153.52 358.431 155.464 357.819 158.488Z" fill="white"/>
<path d="M192.985 195.8H207.061V198.392H195.685V206.24H205.837V208.832H195.685V218.408H207.061V221H192.985V195.8ZM220.214 203.144C224.75 203.144 227.594 206.132 227.594 210.92V221H224.966V211.172C224.966 207.824 222.878 205.628 219.674 205.628C216.398 205.628 214.238 207.824 214.238 211.172V221H211.61V203.504H214.238V206.924C215.354 204.548 217.478 203.144 220.214 203.144ZM247.393 203.468H250.021V220.46C250.021 225.32 246.349 228.452 241.309 228.452C237.421 228.452 233.065 226.544 232.921 222.26H235.477C235.549 224.708 238.105 226.22 241.237 226.22C244.765 226.22 247.393 223.952 247.393 220.568V216.716C246.133 219.452 243.613 221.072 240.265 221.072C235.441 221.072 231.589 217.076 231.589 212.072C231.589 207.104 235.441 203.144 240.265 203.144C243.613 203.144 246.133 204.764 247.393 207.464V203.468ZM240.769 218.624C244.585 218.624 247.393 215.888 247.393 212.072C247.393 208.328 244.585 205.556 240.769 205.556C237.061 205.556 234.181 208.436 234.181 212.072C234.181 215.744 237.061 218.624 240.769 218.624ZM256.395 195.872C257.403 195.872 258.303 196.736 258.303 197.744C258.303 198.788 257.403 199.652 256.395 199.652C255.351 199.652 254.523 198.788 254.523 197.744C254.523 196.736 255.351 195.872 256.395 195.872ZM255.063 203.504H257.691V221H255.063V203.504ZM271.331 203.144C275.867 203.144 278.711 206.132 278.711 210.92V221H276.083V211.172C276.083 207.824 273.995 205.628 270.791 205.628C267.515 205.628 265.355 207.824 265.355 211.172V221H262.727V203.504H265.355V206.924C266.471 204.548 268.595 203.144 271.331 203.144ZM299.986 211.712C299.986 211.964 299.986 212.504 299.95 212.72H285.298C285.55 216.428 288.034 218.984 291.706 218.984C294.478 218.984 296.746 217.616 297.214 215.456H299.842C299.158 219.02 295.81 221.36 291.634 221.36C286.558 221.36 282.706 217.4 282.706 212.144C282.706 207.104 286.63 203.144 291.598 203.144C296.314 203.144 299.986 206.744 299.986 211.712ZM285.406 210.488H297.178C296.926 207.608 294.622 205.52 291.49 205.52C288.394 205.52 286.018 207.464 285.406 210.488ZM319.744 211.712C319.744 211.964 319.744 212.504 319.708 212.72H305.056C305.308 216.428 307.792 218.984 311.464 218.984C314.236 218.984 316.504 217.616 316.972 215.456H319.6C318.916 219.02 315.568 221.36 311.392 221.36C306.316 221.36 302.464 217.4 302.464 212.144C302.464 207.104 306.388 203.144 311.356 203.144C316.072 203.144 319.744 206.744 319.744 211.712ZM305.164 210.488H316.936C316.684 207.608 314.38 205.52 311.248 205.52C308.152 205.52 305.776 207.464 305.164 210.488ZM331.353 203.144C331.893 203.144 332.505 203.252 332.973 203.36V205.808C332.469 205.628 331.857 205.52 331.281 205.52C328.581 205.52 326.421 207.644 326.421 210.632V221H323.793V203.504H326.421V206.312C327.429 204.404 329.193 203.144 331.353 203.144Z" fill="white"/>
<defs>
<filter id="filter0_bi_1_1012" x="-37.0269" y="-37.0269" width="600.054" height="362.054" filterUnits="userSpaceOnUse" color-interpolation-filters="sRGB">
<feFlood flood-opacity="0" result="BackgroundImageFix"/>
<feGaussianBlur in="BackgroundImageFix" stdDeviation="18.5135"/>
<feComposite in2="SourceAlpha" operator="in" result="effect1_backgroundBlur_1_1012"/>
<feBlend mode="normal" in="SourceGraphic" in2="effect1_backgroundBlur_1_1012" result="shape"/>
<feColorMatrix in="SourceAlpha" type="matrix" values="0 0 0 0 0 0 0 0 0 0 0 0 0 0 0 0 0 0 127 0" result="hardAlpha"/>
<feOffset/>
<feGaussianBlur stdDeviation="21.9419"/>
<feComposite in2="hardAlpha" operator="arithmetic" k2="-1" k3="1"/>
<feColorMatrix type="matrix" values="0 0 0 0 1 0 0 0 0 1 0 0 0 0 1 0 0 0 0.08 0"/>
<feBlend mode="normal" in2="shape" result="effect2_innerShadow_1_1012"/>
</filter>
</defs>
</svg>
