<svg width="205" height="288" viewBox="0 0 205 288" fill="none" xmlns="http://www.w3.org/2000/svg">
<g filter="url(#filter0_bi_1_1002)">
<rect x="-321" width="526" height="288" rx="24" fill="white" fill-opacity="0.03"/>
</g>
<path d="M-166.517 117.36C-173.573 117.36 -179.045 111.672 -179.045 104.328C-179.045 97.056 -173.573 91.44 -166.517 91.44C-160.973 91.44 -156.149 94.968 -155.177 99.972H-158.165C-159.137 96.48 -162.557 94.068 -166.517 94.068C-171.989 94.068 -176.237 98.532 -176.237 104.328C-176.237 110.196 -171.989 114.732 -166.517 114.732C-162.449 114.732 -159.029 112.212 -158.129 108.504H-155.105C-156.185 113.76 -160.865 117.36 -166.517 117.36ZM-148.204 91.8V117H-150.832V91.8H-148.204ZM-135.668 99.144C-130.592 99.144 -126.596 103.104 -126.596 108.252C-126.596 113.4 -130.592 117.36 -135.668 117.36C-140.744 117.36 -144.704 113.4 -144.704 108.252C-144.704 103.104 -140.744 99.144 -135.668 99.144ZM-135.668 101.628C-139.304 101.628 -142.112 104.508 -142.112 108.252C-142.112 111.96 -139.304 114.876 -135.668 114.876C-132.032 114.876 -129.188 111.96 -129.188 108.252C-129.188 104.508 -132.032 101.628 -135.668 101.628ZM-109.245 99.504H-106.617V117H-109.245V113.616C-110.361 115.956 -112.449 117.36 -115.221 117.36C-119.721 117.36 -122.601 114.336 -122.601 109.584V99.504H-119.973V109.296C-119.973 112.68 -117.885 114.876 -114.681 114.876C-111.369 114.876 -109.245 112.68 -109.245 109.296V99.504ZM-86.8177 91.8H-84.1897V117H-86.8177V112.932C-88.0777 115.704 -90.5977 117.36 -93.9457 117.36C-98.7697 117.36 -102.622 113.292 -102.622 108.216C-102.622 103.14 -98.7697 99.144 -93.9457 99.144C-90.5977 99.144 -88.0777 100.764 -86.8177 103.536V91.8ZM-93.4417 114.876C-89.6257 114.876 -86.8177 112.068 -86.8177 108.216C-86.8177 104.4 -89.6257 101.592 -93.4417 101.592C-97.1497 101.592 -100.03 104.544 -100.03 108.216C-100.03 111.96 -97.1497 114.876 -93.4417 114.876ZM-70.1404 91.8H-67.5844L-53.4724 112.032V91.8H-50.7364V117H-53.2564L-67.4404 96.804V117H-70.1404V91.8ZM-29.1268 107.712C-29.1268 107.964 -29.1268 108.504 -29.1628 108.72H-43.8148C-43.5628 112.428 -41.0788 114.984 -37.4068 114.984C-34.6348 114.984 -32.3668 113.616 -31.8988 111.456H-29.2708C-29.9548 115.02 -33.3028 117.36 -37.4788 117.36C-42.5548 117.36 -46.4068 113.4 -46.4068 108.144C-46.4068 103.104 -42.4828 99.144 -37.5148 99.144C-32.7988 99.144 -29.1268 102.744 -29.1268 107.712ZM-43.7068 106.488H-31.9348C-32.1868 103.608 -34.4908 101.52 -37.6228 101.52C-40.7188 101.52 -43.0948 103.464 -43.7068 106.488ZM-16.7105 101.952H-21.6065V111.096C-21.6065 113.76 -20.1665 114.732 -17.9345 114.732C-17.5385 114.732 -17.0705 114.696 -16.7105 114.588V117C-17.1785 117.108 -17.8625 117.18 -18.4025 117.18C-21.9665 117.18 -24.2345 115.236 -24.2345 111.132V101.952H-27.6905V99.504H-24.2345V94.68H-21.6065V99.504H-16.7105V101.952ZM-8.55422 117L-14.9622 99.504H-12.1542L-7.47422 113.256L-2.54222 99.504H-0.382218L4.58578 113.256L9.26578 99.504H12.0738L5.66578 117H3.50578L-1.46222 103.248L-6.43022 117H-8.55422ZM22.6409 99.144C27.7169 99.144 31.7129 103.104 31.7129 108.252C31.7129 113.4 27.7169 117.36 22.6409 117.36C17.5649 117.36 13.6049 113.4 13.6049 108.252C13.6049 103.104 17.5649 99.144 22.6409 99.144ZM22.6409 101.628C19.0049 101.628 16.1969 104.508 16.1969 108.252C16.1969 111.96 19.0049 114.876 22.6409 114.876C26.2769 114.876 29.1209 111.96 29.1209 108.252C29.1209 104.508 26.2769 101.628 22.6409 101.628ZM43.2675 99.144C43.8075 99.144 44.4195 99.252 44.8875 99.36V101.808C44.3835 101.628 43.7715 101.52 43.1955 101.52C40.4955 101.52 38.3355 103.644 38.3355 106.632V117H35.7075V99.504H38.3355V102.312C39.3435 100.404 41.1075 99.144 43.2675 99.144ZM63.1991 117H59.7071L50.8511 108.432V117H48.2231V91.8H50.8511V107.316L59.3111 99.504H62.6231L53.5151 107.856L63.1991 117Z" fill="white"/>
<path d="M-167.084 143.8H-164.384V169H-167.084V143.8ZM-150.401 151.144C-145.865 151.144 -143.021 154.132 -143.021 158.92V169H-145.649V159.172C-145.649 155.824 -147.737 153.628 -150.941 153.628C-154.217 153.628 -156.377 155.824 -156.377 159.172V169H-159.005V151.504H-156.377V154.924C-155.261 152.548 -153.137 151.144 -150.401 151.144ZM-129.566 145.816C-131.762 145.816 -133.238 146.752 -133.238 149.416V151.504H-128.306V153.952H-133.238V169H-135.866V153.952H-139.322V151.504H-135.866V149.38C-135.866 145.312 -133.562 143.368 -130.034 143.368C-129.494 143.368 -128.81 143.44 -128.306 143.548V145.96C-128.702 145.852 -129.134 145.816 -129.566 145.816ZM-117.238 151.144C-116.698 151.144 -116.086 151.252 -115.618 151.36V153.808C-116.122 153.628 -116.734 153.52 -117.31 153.52C-120.01 153.52 -122.17 155.644 -122.17 158.632V169H-124.798V151.504H-122.17V154.312C-121.162 152.404 -119.398 151.144 -117.238 151.144ZM-98.8938 151.504H-96.2658V169H-98.8938V164.932C-100.154 167.704 -102.674 169.36 -106.022 169.36C-110.846 169.36 -114.698 165.292 -114.698 160.216C-114.698 155.14 -110.846 151.144 -106.022 151.144C-102.674 151.144 -100.154 152.764 -98.8938 155.536V151.504ZM-105.518 166.876C-101.702 166.876 -98.8938 164.068 -98.8938 160.216C-98.8938 156.4 -101.702 153.592 -105.518 153.592C-109.226 153.592 -112.106 156.544 -112.106 160.216C-112.106 163.96 -109.226 166.876 -105.518 166.876ZM-85.4641 169.36C-89.3881 169.36 -92.1961 167.236 -92.5561 163.816H-90.0361C-89.7841 165.796 -88.0201 167.092 -85.5721 167.092C-83.1241 167.092 -81.5041 165.868 -81.5041 164.104C-81.5041 159.172 -92.1241 162.808 -92.1241 156.04C-92.1241 153.196 -89.6761 151.144 -85.8961 151.144C-82.5481 151.144 -79.6681 153.016 -79.2721 156.148H-81.9361C-82.1881 154.528 -83.8081 153.34 -85.9681 153.34C-88.0921 153.34 -89.5681 154.348 -89.5681 155.86C-89.5681 160.576 -78.9481 156.796 -78.9481 164.032C-78.9481 167.128 -81.7201 169.36 -85.4641 169.36ZM-66.3687 153.952H-71.2647V163.096C-71.2647 165.76 -69.8247 166.732 -67.5927 166.732C-67.1967 166.732 -66.7287 166.696 -66.3687 166.588V169C-66.8367 169.108 -67.5207 169.18 -68.0607 169.18C-71.6247 169.18 -73.8927 167.236 -73.8927 163.132V153.952H-77.3487V151.504H-73.8927V146.68H-71.2647V151.504H-66.3687V153.952ZM-55.1524 151.144C-54.6124 151.144 -54.0004 151.252 -53.5324 151.36V153.808C-54.0364 153.628 -54.6484 153.52 -55.2244 153.52C-57.9244 153.52 -60.0844 155.644 -60.0844 158.632V169H-62.7124V151.504H-60.0844V154.312C-59.0764 152.404 -57.3124 151.144 -55.1524 151.144ZM-37.0869 151.504H-34.4589V169H-37.0869V165.616C-38.2029 167.956 -40.2909 169.36 -43.0629 169.36C-47.5629 169.36 -50.4429 166.336 -50.4429 161.584V151.504H-47.8149V161.296C-47.8149 164.68 -45.7269 166.876 -42.5229 166.876C-39.2109 166.876 -37.0869 164.68 -37.0869 161.296V151.504ZM-21.4275 169.36C-26.5035 169.36 -30.4635 165.4 -30.4635 160.252C-30.4635 155.104 -26.5035 151.144 -21.4275 151.144C-17.4675 151.144 -13.9755 153.736 -13.3275 157.228H-15.9915C-16.5675 155.14 -18.8355 153.628 -21.4275 153.628C-25.0635 153.628 -27.8715 156.508 -27.8715 160.252C-27.8715 163.96 -25.0635 166.876 -21.4275 166.876C-18.8715 166.876 -16.4955 165.364 -15.9915 163.096H-13.3275C-13.8675 166.804 -17.4315 169.36 -21.4275 169.36ZM-0.310077 153.952H-5.20608V163.096C-5.20608 165.76 -3.76608 166.732 -1.53408 166.732C-1.13808 166.732 -0.670078 166.696 -0.310077 166.588V169C-0.778078 169.108 -1.46208 169.18 -2.00208 169.18C-5.56608 169.18 -7.83408 167.236 -7.83408 163.132V153.952H-11.2901V151.504H-7.83408V146.68H-5.20608V151.504H-0.310077V153.952ZM16.3506 151.504H18.9786V169H16.3506V165.616C15.2346 167.956 13.1466 169.36 10.3746 169.36C5.87461 169.36 2.99461 166.336 2.99461 161.584V151.504H5.62261V161.296C5.62261 164.68 7.71061 166.876 10.9146 166.876C14.2266 166.876 16.3506 164.68 16.3506 161.296V151.504ZM31.578 151.144C32.118 151.144 32.73 151.252 33.198 151.36V153.808C32.694 153.628 32.082 153.52 31.506 153.52C28.806 153.52 26.646 155.644 26.646 158.632V169H24.018V151.504H26.646V154.312C27.654 152.404 29.418 151.144 31.578 151.144ZM51.3986 159.712C51.3986 159.964 51.3986 160.504 51.3626 160.72H36.7106C36.9626 164.428 39.4466 166.984 43.1186 166.984C45.8906 166.984 48.1586 165.616 48.6266 163.456H51.2546C50.5706 167.02 47.2226 169.36 43.0466 169.36C37.9706 169.36 34.1186 165.4 34.1186 160.144C34.1186 155.104 38.0426 151.144 43.0106 151.144C47.7266 151.144 51.3986 154.744 51.3986 159.712ZM36.8186 158.488H48.5906C48.3386 155.608 46.0346 153.52 42.9026 153.52C39.8066 153.52 37.4306 155.464 36.8186 158.488Z" fill="white"/>
<path d="M-128.015 195.8H-113.939V198.392H-125.315V206.24H-115.163V208.832H-125.315V218.408H-113.939V221H-128.015V195.8ZM-100.786 203.144C-96.2502 203.144 -93.4062 206.132 -93.4062 210.92V221H-96.0342V211.172C-96.0342 207.824 -98.1222 205.628 -101.326 205.628C-104.602 205.628 -106.762 207.824 -106.762 211.172V221H-109.39V203.504H-106.762V206.924C-105.646 204.548 -103.522 203.144 -100.786 203.144ZM-73.6067 203.468H-70.9787V220.46C-70.9787 225.32 -74.6507 228.452 -79.6907 228.452C-83.5787 228.452 -87.9347 226.544 -88.0787 222.26H-85.5227C-85.4507 224.708 -82.8947 226.22 -79.7627 226.22C-76.2347 226.22 -73.6067 223.952 -73.6067 220.568V216.716C-74.8667 219.452 -77.3867 221.072 -80.7347 221.072C-85.5587 221.072 -89.4107 217.076 -89.4107 212.072C-89.4107 207.104 -85.5587 203.144 -80.7347 203.144C-77.3867 203.144 -74.8667 204.764 -73.6067 207.464V203.468ZM-80.2307 218.624C-76.4147 218.624 -73.6067 215.888 -73.6067 212.072C-73.6067 208.328 -76.4147 205.556 -80.2307 205.556C-83.9387 205.556 -86.8187 208.436 -86.8187 212.072C-86.8187 215.744 -83.9387 218.624 -80.2307 218.624ZM-64.605 195.872C-63.597 195.872 -62.697 196.736 -62.697 197.744C-62.697 198.788 -63.597 199.652 -64.605 199.652C-65.649 199.652 -66.477 198.788 -66.477 197.744C-66.477 196.736 -65.649 195.872 -64.605 195.872ZM-65.937 203.504H-63.309V221H-65.937V203.504ZM-49.669 203.144C-45.133 203.144 -42.289 206.132 -42.289 210.92V221H-44.917V211.172C-44.917 207.824 -47.005 205.628 -50.209 205.628C-53.485 205.628 -55.645 207.824 -55.645 211.172V221H-58.273V203.504H-55.645V206.924C-54.529 204.548 -52.405 203.144 -49.669 203.144ZM-21.0135 211.712C-21.0135 211.964 -21.0135 212.504 -21.0495 212.72H-35.7015C-35.4495 216.428 -32.9655 218.984 -29.2935 218.984C-26.5215 218.984 -24.2535 217.616 -23.7855 215.456H-21.1575C-21.8415 219.02 -25.1895 221.36 -29.3655 221.36C-34.4415 221.36 -38.2935 217.4 -38.2935 212.144C-38.2935 207.104 -34.3695 203.144 -29.4015 203.144C-24.6855 203.144 -21.0135 206.744 -21.0135 211.712ZM-35.5935 210.488H-23.8215C-24.0735 207.608 -26.3775 205.52 -29.5095 205.52C-32.6055 205.52 -34.9815 207.464 -35.5935 210.488ZM-1.25572 211.712C-1.25572 211.964 -1.25572 212.504 -1.29172 212.72H-15.9437C-15.6917 216.428 -13.2077 218.984 -9.53572 218.984C-6.76372 218.984 -4.49572 217.616 -4.02772 215.456H-1.39972C-2.08372 219.02 -5.43172 221.36 -9.60772 221.36C-14.6837 221.36 -18.5357 217.4 -18.5357 212.144C-18.5357 207.104 -14.6117 203.144 -9.64372 203.144C-4.92772 203.144 -1.25572 206.744 -1.25572 211.712ZM-15.8357 210.488H-4.06372C-4.31572 207.608 -6.61972 205.52 -9.75172 205.52C-12.8477 205.52 -15.2237 207.464 -15.8357 210.488ZM10.3534 203.144C10.8934 203.144 11.5054 203.252 11.9734 203.36V205.808C11.4694 205.628 10.8574 205.52 10.2814 205.52C7.58144 205.52 5.42144 207.644 5.42144 210.632V221H2.79344V203.504H5.42144V206.312C6.42944 204.404 8.19344 203.144 10.3534 203.144Z" fill="white"/>
<defs>
<filter id="filter0_bi_1_1002" x="-358.027" y="-37.0269" width="600.054" height="362.054" filterUnits="userSpaceOnUse" color-interpolation-filters="sRGB">
<feFlood flood-opacity="0" result="BackgroundImageFix"/>
<feGaussianBlur in="BackgroundImageFix" stdDeviation="18.5135"/>
<feComposite in2="SourceAlpha" operator="in" result="effect1_backgroundBlur_1_1002"/>
<feBlend mode="normal" in="SourceGraphic" in2="effect1_backgroundBlur_1_1002" result="shape"/>
<feColorMatrix in="SourceAlpha" type="matrix" values="0 0 0 0 0 0 0 0 0 0 0 0 0 0 0 0 0 0 127 0" result="hardAlpha"/>
<feOffset/>
<feGaussianBlur stdDeviation="21.9419"/>
<feComposite in2="hardAlpha" operator="arithmetic" k2="-1" k3="1"/>
<feColorMatrix type="matrix" values="0 0 0 0 1 0 0 0 0 1 0 0 0 0 1 0 0 0 0.08 0"/>
<feBlend mode="normal" in2="shape" result="effect2_innerShadow_1_1002"/>
</filter>
</defs>
</svg>
